# xmcd
#
# Track frame offsets:
# 150
# 6155
# 23190
# 38600
# 58555
# 63395
# 77580
# 96467
# 110465
# 124775
# 143447
# 158540
# 162712
# 180727
# 185277
# 201795
#
# Disc length: 2806 seconds
#
#
# Revision: 11
# Processed by: cddbd v1.5.2PL0 Copyright (c) Steve Scherf et al.
# Submitted via: FreeRIP 2.96 
#
DISCID=cc0af410
DTITLE=Ghostface Killah - Bulletproof Wallets
DYEAR=2001
DGENRE=Hip-Hop
TTITLE0=Intro
TTITLE1=Maxine
TTITLE2=Flowers (feat. Raekwon, Method Man and Superb)
TTITLE3=Never Be The Same Again (feat. Carl Thomas and Raekwon)
TTITLE4=Teddy Skit
TTITLE5=Theodore (feat. Trife and Twiz)
TTITLE6=Ghost Showers
TTITLE7=Strawberry (feat. Killah Sin, RZA and GZA)
TTITLE8=The Forest (feat. Raekwon)
TTITLE9=The Juks (feat. Trife and Superb)
TTITLE10=Walking Through The Darkness (feat. Takitha)
TTITLE11=Jealousy
TTITLE12=The Hilton (feat. Raekwon)
TTITLE13=Interlude
TTITLE14=Love Session (feat. Ruff Endz)
TTITLE15=Street Chemistry (feat. Prodigal Sunn and Trife)
EXTD=(featuring Raekwon)
EXTT0=cc0af410
EXTT1=
EXTT2=
EXTT3=
EXTT4=
EXTT5=
EXTT6=
EXTT7=
EXTT8=
EXTT9=
EXTT10=
EXTT11=
EXTT12=
EXTT13=
EXTT14=
EXTT15=
PLAYORDER=
